<mxfile host="app.diagrams.net" modified="2023-07-11T04:55:00.007Z" agent="Mozilla/5.0 (Windows NT 10.0; Win64; x64) AppleWebKit/537.36 (KHTML, like Gecko) Chrome/114.0.0.0 Safari/537.36" version="21.6.1" etag="t8bMv1Yn8z3gNC0nMga8" type="github">
  <diagram name="페이지-1" id="2GDwoDGK6cftdf2g5as5">
    <mxGraphModel>
      <root>
        <mxCell id="0" />
        <mxCell id="1" parent="0" />
      </root>
    </mxGraphModel>
  </diagram>
</mxfile>
